/* XPM */
static char * close_prelight_xpm[] = {
"20 18 50 1",
" 	c #343236",
".	c #624141",
"+	c #A5373D",
"@	c #CD353F",
"#	c #DD3742",
"$	c #CC353F",
"%	c #5F4243",
"&	c #8E3B3F",
"*	c #DC3841",
"=	c #EF4B52",
"-	c #F25056",
";	c #DA3741",
">	c #8C3B3F",
",	c #8E3A3F",
"'	c #E53D47",
")	c #E43C47",
"!	c #8B3B3E",
"~	c #614040",
"{	c #E64950",
"]	c #A21F2C",
"^	c #E74950",
"/	c #DB3641",
"(	c #5D4041",
"_	c #A5363B",
":	c #000000",
"<	c #EE4A52",
"[	c #A3363C",
"}	c #CA353E",
"|	c #DE3742",
"1	c #DC3741",
"2	c #DB3741",
"3	c #CC353E",
"4	c #C9343D",
"5	c #A5343B",
"6	c #EE4A51",
"7	c #A1353B",
"8	c #5C3C3D",
"9	c #DA3641",
"0	c #D93640",
"a	c #5A3C3D",
"b	c #8A373A",
"c	c #E33B46",
"d	c #87373B",
"e	c #8A373B",
"f	c #DA3541",
"g	c #593B3C",
"h	c #A33239",
"i	c #C9333C",
"j	c #A1333A",
"k	c #51393B",
"                    ",
"                    ",
"      .+@##$+%      ",
"     &*=----=;>     ",
"    ,'--------)!    ",
"   ~*-{]----]^-/(   ",
"   _=-]:]--]:]-<[   ",
"   @---]:]]:]---}   ",
"   |----]::]----1   ",
"   #----]::]----2   ",
"   3---]:]]:]---4   ",
"   5=-]:]--]:]-67   ",
"   89-^]----]^-0a   ",
"    b)--------cd    ",
"     ef<----60d     ",
"      ghi114jk      ",
"                    ",
"                    "};
