/* XPM */
static char * hide_prelight_xpm[] = {
"20 18 44 1",
" 	c #343236",
".	c #635340",
"+	c #A97F31",
"@	c #D19C24",
"#	c #E3AB21",
"$	c #AA7D30",
"%	c #605241",
"&	c #916E37",
"*	c #E1AA21",
"=	c #F6C031",
"-	c #FAC536",
";	c #E1A921",
">	c #916D37",
",	c #8F6E37",
"'	c #EBB324",
")	c #8F6D36",
"!	c #5F503F",
"~	c #E1A821",
"{	c #5E513F",
"]	c #A97E2F",
"^	c #A77C30",
"/	c #D19B25",
"(	c #E3AB20",
"_	c #5A4D3B",
":	c #000000",
"<	c #E3AA20",
"[	c #E2A920",
"}	c #D09B24",
"|	c #A87D2E",
"1	c #A67C2E",
"2	c #5D4D3B",
"3	c #E0A721",
"4	c #8B6933",
"5	c #EAB123",
"6	c #8B6B34",
"7	c #8D6A33",
"8	c #E0A821",
"9	c #DEA720",
"0	c #5A4C3A",
"a	c #A67A2C",
"b	c #D09A23",
"c	c #E1A920",
"d	c #CE9A23",
"e	c #A47A2C",
"                    ",
"                    ",
"      .+@##@$%      ",
"     &*=----=;>     ",
"    ,'--------')    ",
"   !;----------~{   ",
"   ]=----------=^   ",
"   @------------/   ",
"   (-_::::::::_-<   ",
"   <-_::::::::_-[   ",
"   }------------}   ",
"   |=----------=1   ",
"   23----------3_   ",
"    45--------56    ",
"     78=----=94     ",
"      0abccde0      ",
"                    ",
"                    "};
